<?xml version="1.0" encoding="UTF-8" ?>
<!DOCTYPE svg PUBLIC "-//W3C//DTD SVG 1.1//EN" "http://www.w3.org/Graphics/SVG/1.1/DTD/svg11.dtd">
<svg width="3613pt" height="342pt" viewBox="0 0 3613 342" version="1.1" xmlns="http://www.w3.org/2000/svg">
<g id="#000000ff">
<path fill="#000000" opacity="1.00" d=" M 2926.60 0.12 C 2988.82 53.37 3051.12 106.52 3113.37 159.73 C 3124.64 169.23 3135.65 179.02 3147.07 188.33 C 3147.18 127.46 3147.09 66.58 3147.12 5.71 C 3168.82 5.76 3190.53 5.70 3212.24 5.74 C 3212.28 117.65 3212.23 229.57 3212.27 341.49 C 3138.72 278.82 3065.32 215.97 2991.84 153.23 C 2991.90 214.12 2991.80 275.02 2991.90 335.92 C 2970.13 335.84 2948.36 335.90 2926.60 335.89 C 2926.64 223.96 2926.64 112.04 2926.60 0.12 Z" />
<path fill="#000000" opacity="1.00" d=" M 1039.11 2.50 C 1141.03 2.57 1242.96 2.55 1344.89 2.51 C 1344.89 23.31 1344.84 44.10 1344.92 64.90 C 1303.48 64.79 1262.05 64.91 1220.61 64.84 C 1220.64 154.16 1220.57 243.49 1220.65 332.81 C 1199.19 332.79 1177.74 332.77 1156.29 332.82 C 1156.36 243.80 1156.29 154.78 1156.32 65.76 C 1117.19 65.79 1078.07 65.77 1038.94 65.77 C 1039.03 44.68 1038.71 23.58 1039.11 2.50 Z" />
<path fill="#000000" opacity="1.00" d=" M 1376.84 334.55 C 1440.44 224.00 1503.88 113.35 1567.44 2.78 C 1603.69 66.08 1639.92 129.39 1676.01 192.78 C 1663.38 214.80 1650.56 236.71 1638.13 258.83 C 1617.13 221.89 1595.99 185.03 1574.88 148.15 C 1572.31 143.78 1569.93 139.30 1567.20 135.03 C 1541.81 179.47 1516.08 223.72 1490.88 268.26 C 1538.17 268.36 1585.47 268.19 1632.76 267.99 C 1620.49 289.32 1608.30 310.71 1596.01 332.03 C 1595.32 333.65 1593.74 334.41 1592.06 334.17 C 1520.32 334.15 1448.58 334.56 1376.84 334.55 Z" />
<path fill="#000000" opacity="1.00" d=" M 3307.08 2.51 C 3409.05 2.58 3511.03 2.52 3613.00 2.54 L 3613.00 64.86 C 3571.54 64.85 3530.08 64.88 3488.63 64.84 C 3488.64 154.17 3488.60 243.49 3488.65 332.81 C 3467.20 332.79 3445.75 332.78 3424.30 332.81 C 3424.36 243.80 3424.31 154.78 3424.33 65.76 C 3385.20 65.78 3346.08 65.77 3306.95 65.77 C 3307.01 44.68 3306.76 23.59 3307.08 2.51 Z" />
<path fill="#000000" opacity="1.00" d=" M 1.11 5.70 C 44.41 5.80 87.72 5.64 131.03 5.78 C 145.44 6.87 159.42 10.93 173.28 14.83 C 179.97 16.57 186.07 19.86 192.29 22.78 C 222.82 37.66 249.22 61.40 266.08 91.00 C 281.45 117.74 288.24 149.07 286.74 179.79 C 284.49 213.79 271.91 247.10 250.71 273.82 C 233.30 295.55 210.70 313.52 184.55 323.50 C 174.93 327.11 165.14 330.48 154.99 332.26 C 146.73 333.83 138.47 335.80 130.02 335.89 C 86.99 335.87 43.96 335.89 0.92 335.88 C 0.92 230.93 0.92 125.99 0.92 21.04 C 0.96 15.93 0.80 10.81 1.11 5.70 M 64.75 69.85 C 64.76 137.34 64.77 204.82 64.74 272.31 C 81.83 272.28 98.92 272.31 116.01 272.30 C 132.45 272.55 148.90 268.86 163.72 261.75 C 184.62 251.99 202.09 235.06 212.23 214.32 C 222.03 194.91 224.63 172.10 220.10 150.88 C 214.58 125.92 199.39 103.27 178.46 88.60 C 162.05 76.98 142.22 70.11 122.05 69.87 C 102.95 69.85 83.85 69.89 64.75 69.85 Z" />
<path fill="#000000" opacity="1.00" d=" M 397.55 5.74 C 479.45 5.72 561.35 5.72 643.25 5.74 C 643.27 26.96 643.28 48.18 643.25 69.40 C 582.63 69.42 522.01 69.39 461.39 69.41 C 461.38 89.73 461.38 110.05 461.39 130.38 C 505.16 130.35 548.94 130.40 592.71 130.35 C 592.70 152.20 592.66 174.04 592.73 195.89 C 548.96 195.83 505.19 195.93 461.41 195.84 C 461.35 221.17 461.37 246.50 461.40 271.82 C 522.02 271.88 582.64 271.81 643.26 271.86 C 643.29 293.20 643.24 314.54 643.28 335.88 C 561.36 335.89 479.44 335.87 397.52 335.89 C 397.59 225.84 397.52 115.79 397.55 5.74 Z" />
<path fill="#000000" opacity="1.00" d=" M 785.17 5.72 C 806.29 5.74 827.41 5.72 848.53 5.73 C 848.58 94.74 848.53 183.74 848.56 272.75 C 904.23 272.77 959.91 272.74 1015.58 272.76 C 1015.62 293.81 1015.53 314.85 1015.63 335.90 C 938.79 335.88 861.96 335.85 785.13 335.92 C 785.23 225.85 785.15 115.79 785.17 5.72 Z" />
<path fill="#000000" opacity="1.00" d=" M 2391.51 6.75 C 2424.24 3.32 2458.17 8.42 2487.58 23.53 C 2513.51 36.29 2535.95 56.06 2551.76 80.26 C 2568.61 105.90 2578.55 136.22 2578.95 166.97 C 2579.80 194.30 2573.80 221.88 2561.02 246.09 C 2547.40 272.65 2526.42 295.35 2500.98 310.96 C 2474.96 327.10 2444.56 336.05 2413.92 336.38 C 2380.09 337.26 2346.12 327.75 2317.79 309.20 C 2291.66 292.30 2270.51 267.83 2257.49 239.56 C 2241.50 205.91 2238.36 166.66 2247.37 130.62 C 2254.72 102.07 2269.74 75.45 2290.72 54.70 C 2317.61 27.97 2353.77 10.61 2391.51 6.75 M 2404.32 71.44 C 2366.02 73.58 2330.13 99.03 2315.21 134.34 C 2306.70 153.88 2305.30 176.38 2311.26 196.83 C 2319.20 224.26 2339.47 247.47 2364.99 260.03 C 2392.65 274.35 2426.94 274.45 2454.93 260.94 C 2480.70 249.00 2501.43 226.27 2510.12 199.15 C 2516.12 179.72 2515.71 158.30 2508.65 139.20 C 2503.35 124.87 2494.81 111.75 2483.84 101.12 C 2462.92 80.84 2433.54 69.20 2404.32 71.44 Z" />
<path fill="#000000" opacity="1.00" d=" M 2720.70 5.74 C 2741.76 5.69 2762.83 5.77 2783.89 5.70 C 2784.27 57.79 2783.95 109.88 2784.05 161.98 C 2784.05 219.94 2784.05 277.91 2784.05 335.88 C 2762.92 335.89 2741.80 335.88 2720.67 335.88 C 2720.72 225.84 2720.66 115.79 2720.70 5.74 Z" />
<path fill="#000000" opacity="1.00" d=" M 1878.89 7.12 C 1929.27 7.15 1979.67 7.05 2030.06 7.17 C 2065.96 10.50 2100.03 31.31 2118.69 62.29 C 2128.79 78.97 2133.29 98.61 2133.42 118.00 C 2133.20 138.02 2127.56 158.01 2117.08 175.08 C 2108.71 188.91 2097.09 200.65 2083.78 209.77 C 2069.59 219.59 2052.69 224.25 2036.07 228.02 C 2005.13 228.39 1974.16 228.02 1943.21 228.19 C 1943.14 264.57 1943.23 300.95 1943.17 337.34 C 1921.75 337.35 1900.33 337.35 1878.91 337.34 C 1878.86 227.26 1878.91 117.19 1878.89 7.12 M 1942.74 71.23 C 1942.73 102.20 1942.73 133.17 1942.73 164.13 C 1970.48 164.10 1998.23 164.12 2025.98 164.13 C 2031.63 164.11 2037.37 163.09 2042.42 160.42 C 2053.57 154.81 2061.23 144.07 2065.71 132.68 C 2074.08 111.77 2063.69 85.11 2042.96 75.97 C 2036.96 73.45 2030.64 70.96 2024.03 71.20 C 1996.93 71.26 1969.83 71.20 1942.74 71.23 Z" />
<path fill="#000000" opacity="1.00" d=" M 1661.81 333.91 C 1677.77 306.35 1693.62 278.72 1709.38 251.04 C 1725.16 278.63 1740.92 306.22 1756.72 333.79 C 1725.08 333.50 1693.44 334.16 1661.81 333.91 Z" />
</g>
</svg>
