<?xml version="1.0" encoding="UTF-8" ?>
<!DOCTYPE svg PUBLIC "-//W3C//DTD SVG 1.1//EN" "http://www.w3.org/Graphics/SVG/1.1/DTD/svg11.dtd">
<svg width="3037pt" height="334pt" viewBox="0 0 3037 334" version="1.1" xmlns="http://www.w3.org/2000/svg">
<g id="#ffffffff">
<path fill="#ffffff" opacity="1.00" d=" M 1155.41 316.42 C 1216.28 211.00 1277.14 105.57 1338.01 0.15 C 1379.47 72.30 1420.93 144.46 1462.39 216.61 C 1455.25 228.98 1448.13 241.36 1441.00 253.75 C 1406.66 193.94 1372.30 134.15 1337.95 74.35 C 1298.53 142.65 1259.11 210.95 1219.69 279.25 C 1288.64 279.14 1357.59 278.98 1426.54 278.79 C 1419.38 291.16 1412.23 303.53 1405.07 315.89 C 1321.85 316.09 1238.63 316.27 1155.41 316.42 Z" />
<path fill="#ffffff" opacity="1.00" d=" M 1908.31 98.31 C 1935.81 37.84 2002.68 -2.04 2069.05 3.61 C 2132.09 7.20 2190.34 50.55 2212.41 109.62 C 2227.59 148.83 2227.00 193.91 2210.45 232.59 C 2185.82 292.69 2123.38 333.62 2058.64 333.99 L 2063.88 334.00 L 2057.77 334.00 C 2012.76 333.41 1968.08 314.75 1937.36 281.62 C 1891.26 234.08 1879.30 157.78 1908.31 98.31 M 2050.34 42.49 C 1983.62 45.02 1927.65 108.54 1932.69 174.97 C 1934.26 241.15 1995.73 298.36 2061.97 294.43 C 2128.85 293.82 2186.62 231.67 2182.90 164.98 C 2182.63 96.65 2118.81 36.68 2050.34 42.49 Z" />
<path fill="#ffffff" opacity="1.00" d=" M 0.00 11.85 L 0.01 13.35 C 42.21 13.06 84.77 11.25 126.89 14.70 C 174.20 21.57 218.22 50.02 242.75 91.23 C 265.33 127.94 271.10 174.43 258.51 215.62 C 240.46 277.23 181.79 323.40 118.07 328.44 C 78.76 330.26 39.35 328.90 0.00 329.24 L 0.00 11.85 M 39.87 51.53 C 39.87 131.23 39.88 210.92 39.87 290.62 C 68.34 289.84 97.08 292.57 125.34 288.49 C 179.31 279.39 224.22 230.59 225.47 175.32 C 228.98 112.96 175.61 56.37 114.09 52.14 C 89.38 50.89 64.61 51.78 39.87 51.53 Z" />
<path fill="#ffffff" opacity="1.00" d=" M 349.40 329.30 C 349.39 223.82 349.40 118.34 349.40 12.85 C 416.07 12.85 482.73 12.85 549.40 12.86 C 549.40 25.60 549.40 38.34 549.40 51.07 C 496.06 51.08 442.73 51.07 389.40 51.08 C 389.41 75.82 389.39 100.56 389.40 125.30 C 435.91 125.29 482.43 125.30 528.94 125.29 C 528.95 138.48 528.95 151.67 528.95 164.85 C 482.43 164.85 435.92 164.85 389.40 164.86 C 389.40 206.63 389.40 248.41 389.40 290.19 C 441.40 290.19 493.40 290.19 545.40 290.19 C 545.39 303.22 545.40 316.26 545.40 329.29 C 480.07 329.29 414.73 329.29 349.40 329.30 Z" />
<path fill="#ffffff" opacity="1.00" d=" M 635.94 12.86 C 649.27 12.86 662.60 12.86 675.94 12.86 C 675.94 105.45 675.93 198.04 675.94 290.63 C 733.72 290.63 791.50 290.63 849.28 290.64 C 849.28 303.52 849.28 316.41 849.28 329.29 C 778.17 329.29 707.05 329.29 635.94 329.29 C 635.94 223.82 635.94 118.34 635.94 12.86 Z" />
<path fill="#ffffff" opacity="1.00" d=" M 873.86 12.86 C 942.90 12.85 1011.94 12.85 1080.98 12.86 C 1080.97 25.89 1080.98 38.93 1080.98 51.96 C 1053.12 51.97 1025.27 51.96 997.42 51.97 C 997.42 144.41 997.42 236.85 997.43 329.29 C 984.09 329.29 970.75 329.30 957.42 329.30 C 957.42 236.85 957.41 144.41 957.42 51.96 C 929.57 51.96 901.72 51.96 873.87 51.96 C 873.86 38.93 873.87 25.89 873.86 12.86 Z" />
<path fill="#ffffff" opacity="1.00" d=" M 1639.02 12.86 C 1677.70 13.03 1716.40 12.55 1755.07 13.13 C 1792.35 15.34 1824.09 48.69 1824.74 85.98 C 1826.90 124.57 1794.28 160.55 1755.94 163.17 C 1730.16 163.91 1704.36 163.34 1678.58 163.52 C 1678.58 218.78 1678.58 274.04 1678.58 329.29 C 1665.39 329.30 1652.21 329.29 1639.02 329.29 C 1639.02 223.82 1639.02 118.34 1639.02 12.86 M 1678.57 51.52 C 1678.58 75.97 1678.58 100.41 1678.58 124.86 C 1702.75 124.71 1726.93 125.15 1751.09 124.65 C 1769.82 124.09 1785.31 106.46 1784.67 87.98 C 1784.89 69.71 1769.45 52.36 1750.97 51.70 C 1726.84 51.35 1702.70 51.55 1678.57 51.52 Z" />
<path fill="#ffffff" opacity="1.00" d=" M 2320.08 12.86 C 2333.41 12.85 2346.74 12.86 2360.08 12.86 C 2360.07 118.34 2360.09 223.82 2360.08 329.29 C 2346.74 329.29 2333.41 329.29 2320.08 329.30 C 2320.08 223.82 2320.08 118.34 2320.08 12.86 Z" />
<path fill="#ffffff" opacity="1.00" d=" M 2482.11 12.85 C 2496.63 12.85 2511.16 12.85 2525.68 12.85 C 2581.97 96.26 2638.26 179.67 2694.56 263.07 C 2694.55 179.67 2694.55 96.26 2694.56 12.86 C 2707.88 12.85 2721.22 12.86 2734.55 12.85 C 2734.55 118.33 2734.56 223.81 2734.56 329.29 C 2720.16 329.29 2705.77 329.28 2691.38 329.28 C 2634.97 245.86 2578.51 162.47 2522.12 79.04 C 2522.13 162.46 2522.12 245.88 2522.12 329.29 C 2508.78 329.29 2495.45 329.30 2482.11 329.30 C 2482.11 223.82 2482.11 118.33 2482.11 12.85 Z" />
<path fill="#ffffff" opacity="1.00" d=" M 2829.11 12.85 C 2898.38 13.25 2967.85 12.06 3037.00 13.45 L 3037.00 51.67 C 3008.91 52.35 2980.77 51.77 2952.67 51.97 C 2952.66 144.41 2952.68 236.85 2952.66 329.30 C 2939.33 329.29 2926.00 329.30 2912.67 329.30 C 2912.66 236.85 2912.66 144.41 2912.66 51.96 C 2884.81 51.96 2856.96 51.96 2829.11 51.96 C 2829.11 38.92 2829.11 25.89 2829.11 12.85 Z" />
<path fill="#ffffff" opacity="1.00" d=" M 1454.89 315.89 C 1465.67 297.21 1476.47 278.53 1487.27 259.86 C 1498.03 278.47 1508.56 297.22 1519.50 315.73 C 1497.96 315.70 1476.42 315.80 1454.89 315.89 Z" />
</g>
</svg>
